HIERARCHY
ROOT Hips
{
	OFFSET 0.000000 0.000000 0.000000 
	CHANNELS 6 Xposition Yposition Zposition Yrotation Zrotation Xrotation 
	JOINT Lumbar
	{
		OFFSET 0.000000 0.000000 0.000000 
		CHANNELS 3 Zrotation Xrotation Yrotation
		JOINT Neck
		{
			OFFSET 0.000000 0.445665 0.000000 
			CHANNELS 3 Zrotation Xrotation Yrotation
			End Site
			{
				OFFSET 0.000000 0.227535 0.000000 
			}
		}
		JOINT RightShoulder
		{
			OFFSET 0.019635 0.377685 0.194865 
			CHANNELS 3 Zrotation Xrotation Yrotation
			JOINT RightElbow
			{
				OFFSET 0.000000 -0.243375 0.000000 
				CHANNELS 2 Zrotation Yrotation
				JOINT RightWrist
				{
					OFFSET 0.000000 -0.264825 0.000000 
					CHANNELS 2 Zrotation Xrotation
					End Site
					{
						OFFSET 0.006600 -0.176220 0.000990 
					}
				}
			}
		}
		JOINT LeftShoulder
		{
			OFFSET 0.019635 0.377685 -0.194865 
			CHANNELS 3 Zrotation Xrotation Yrotation
			JOINT LeftElbow
			{
				OFFSET 0.000000 -0.243375 0.000000 
				CHANNELS 2 Zrotation Yrotation
				JOINT LeftWrist
				{
					OFFSET 0.000000 -0.264825 0.000000 
					CHANNELS 2 Zrotation Xrotation
					End Site
					{
						OFFSET 0.006600 -0.176220 -0.000990 
					}
				}
			}
		}
	}
	JOINT RightHip
	{
		OFFSET 0.052140 -0.069960 0.075570 
		CHANNELS 3 Zrotation Xrotation Yrotation
		JOINT RightKnee
		{
			OFFSET 0.000000 -0.402270 0.000000 
			CHANNELS 1 Zrotation
			JOINT RightAnkle
			{
				OFFSET 0.000000 -0.404085 0.000000 
				CHANNELS 3 Zrotation Xrotation Yrotation
				End Site
				{
					OFFSET 0.204105 -0.089430 0.008415 
				}
			}
		}
	}
	JOINT LeftHip
	{
		OFFSET 0.052140 -0.069960 -0.075570 
		CHANNELS 3 Zrotation Xrotation Yrotation
		JOINT LeftKnee
		{
			OFFSET 0.000000 -0.402270 0.000000 
			CHANNELS 1 Zrotation
			JOINT LeftAnkle
			{
				OFFSET 0.000000 -0.404085 0.000000 
				CHANNELS 3 Zrotation Xrotation Yrotation
				End Site
				{
					OFFSET 0.204105 -0.089430 -0.008415 
				}
			}
		}
	}
}
MOTION
Frames: 30
Frame Time: 0.02
-0.00155 -0.00055 -0.00209 154.12395 -31.12625 -2.36148 45.62962 2.56138 -5.04333 -11.03268 -5.31432 -0.45385 -22.97584 -9.19553 -9.41314 43.50068 145.97873 19.89595 11.24608 -37.30377 9.51504 8.75386 37.03265 -96.53988 14.22658 -0.4083 32.17049 -4.87772 -14.71736 -20.8439 -8.92852 -3.853 -4.22706 34.06647 8.97453 6.84704 -26.94921 -9.24113 4.17068 4.40085
-0.001 -0.00047 -0.00219 154.19062 -31.31484 -2.35669 45.75116 2.52389 -4.97687 -11.00371 -5.34004 -0.45486 -23.15232 -9.62818 -8.5247 43.51861 140.49985 18.62515 10.18594 -37.05422 9.51243 8.64547 36.85333 -96.54831 14.2608 -0.40472 32.43586 -4.76505 -14.17908 -20.89827 -8.99313 -3.88787 -4.24824 34.32489 9.04434 7.05215 -26.97949 -9.22079 4.15364 4.39148
-0.00046 -0.00039 -0.00229 154.25747 -31.50286 -2.35189 45.87224 2.48645 -4.91078 -10.97477 -5.36564 -0.45588 -23.3285 -10.05966 -7.63919 43.53627 135.03767 17.3582 9.12905 -36.80445 9.51001 8.53672 36.67486 -96.55647 14.29479 -0.40112 32.7004 -4.65285 -13.64307 -20.95249 -9.0575 -3.92261 -4.26933 34.58262 9.11407 7.25718 -27.00969 -9.20042 4.13658 4.3821
8e-05 -0.00031 -0.00238 154.32399 -31.69087 -2.34711 45.9934 2.44906 -4.84455 -10.94588 -5.39129 -0.45689 -23.50447 -10.49098 -6.75356 43.55411 129.57571 16.09133 8.0722 -36.55553 9.50743 8.42856 36.49613 -96.56485 14.32888 -0.39755 32.96494 -4.54054 -13.10655 -21.0067 -9.12191 -3.95737 -4.29044 34.84026 9.18369 7.46178 -27.03987 -9.18013 4.11958 4.37275
0.00063 -0.00022 -0.00248 154.39019 -31.87944 -2.34235 46.11502 2.41165 -4.7779 -10.917 -5.41705 -0.45791 -23.68066 -10.92346 -5.86482 43.57232 124.09693 14.82056 7.01205 -36.30715 9.50462 8.32101 36.31646 -96.57357 14.36326 -0.39401 33.23034 -4.42772 -12.5675 -21.06105 -9.18657 -3.99226 -4.31163 35.09855 9.25332 7.66619 -27.07014 -9.15991 4.10262 4.36342
0.00117 -0.00014 -0.00258 154.4584 -32.06629 -2.33745 46.23497 2.37412 -4.71301 -10.88793 -5.4423 -0.45892 -23.8568 -11.35286 -4.98605 43.58882 118.66986 13.56169 5.96204 -36.05446 9.50301 8.20973 36.14055 -96.58054 14.39643 -0.39029 33.49304 -4.31683 -12.03789 -21.11498 -9.25032 -4.02669 -4.33253 35.35511 9.32325 7.87248 -27.1002 -9.13925 4.08538 4.35395
0.00171 -6e-05 -0.00268 154.52248 -32.25637 -2.33284 46.35817 2.3369 -4.6446 -10.85928 -5.46864 -0.45993 -24.03281 -11.78779 -4.08856 43.60869 113.14552 12.2805 4.89301 -35.81087 9.49896 8.10612 35.9572 -96.59106 14.43198 -0.38695 33.76084 -4.20219 -11.48996 -21.16971 -9.31582 -4.06201 -4.35399 35.61482 9.39255 8.07494 -27.13063 -9.11948 4.0687 4.34477
0.00225 2e-05 -0.00277 154.59038 -32.44352 -2.32798 46.47836 2.29936 -4.57954 -10.83021 -5.49381 -0.46095 -24.20902 -12.21798 -3.20767 43.62558 107.70944 11.01948 3.84108 -35.55859 9.49719 7.99536 35.78083 -96.59826 14.46536 -0.38324 34.02401 -4.09098 -10.95877 -21.2237 -9.37973 -4.09651 -4.37493 35.87171 9.46233 8.28059 -27.16073 -9.09892 4.05153 4.33533
0.00279 0.00011 -0.00286 154.663 -32.62698 -2.32276 46.59494 2.26154 -4.51816 -10.80073 -5.51818 -0.46197 -24.38528 -12.64117 -2.34938 43.63827 102.38464 9.78421 2.81137 -35.2966 9.49813 7.87598 35.6125 -96.60156 14.49597 -0.37912 34.28136 -3.98405 -10.44855 -21.27683 -9.44164 -4.13 -4.39524 36.12495 9.53315 8.49166 -27.19039 -9.07726 4.03364 4.32551
0.00335 0.00019 -0.003 154.70863 -32.83137 -2.31942 46.73249 2.22564 -4.43436 -10.77392 -5.54905 -0.46295 -24.56068 -13.10102 -1.36795 43.67344 96.42961 8.40402 1.65773 -35.09319 9.48324 7.80657 35.39643 -96.62776 14.54217 -0.37752 34.57171 -3.85275 -9.81919 -21.335 -9.51488 -4.16931 -4.4192 36.39858 9.59933 8.67616 -27.22248 -9.06149 4.01952 4.31771
0.00388 0.00027 -0.00302 154.81105 -32.99175 -2.31223 46.82568 2.18553 -4.39866 -10.7413 -5.56502 -0.46404 -24.73819 -13.48576 -0.64199 43.6623 91.79828 7.32761 0.76314 -34.76457 9.50189 7.63158 35.28202 -96.60538 14.55573 -0.3705 34.79272 -3.77272 -9.44021 -21.38248 -9.56434 -4.19635 -4.43548 36.62956 9.67444 8.9137 -27.2495 -9.03358 3.99769 4.30576
0.00435 0.00032 -0.00273 155.07193 -33.02879 -2.29348 46.79667 2.13474 -4.48986 -10.69419 -5.54847 -0.46525 -24.91907 -13.6429 -0.66214 43.51354 90.88717 7.11066 0.60762 -34.10191 9.61228 7.16509 35.44184 -96.45044 14.47664 -0.34928 34.81916 -3.83567 -9.76297 -21.40101 -9.54689 -4.18914 -4.4302 36.73918 9.78152 9.32289 -27.26196 -8.96961 3.95265 4.28132
0.00479 0.00036 -0.00231 155.38911 -33.02191 -2.27113 46.72294 2.0795 -4.63036 -10.64111 -5.51486 -0.46667 -25.10227 -13.72768 -0.93237 43.32018 91.29216 7.1951 0.70807 -33.31185 9.75642 6.59313 35.70466 -96.24664 14.36528 -0.32252 34.77668 -3.94955 -10.33416 -21.40878 -9.50592 -4.16973 -4.4173 36.80654 9.8962 9.78028 -27.26944 -8.89397 3.90029 4.25293
0.00525 0.00041 -0.00194 155.67915 -33.03705 -2.25094 46.67038 2.0258 -4.75152 -10.5896 -5.48431 -0.46803 -25.28635 -13.86078 -1.05634 43.15415 91.03335 7.12326 0.67161 -32.57366 9.88527 6.07029 35.92337 -96.0646 14.27076 -0.29782 34.76863 -4.03879 -10.78239 -21.42114 -9.47674 -4.15626 -4.40819 36.89639 10.00253 10.19889 -27.27965 -8.82543 3.85259 4.22704
0.00571 0.00045 -0.00163 155.97691 -33.04421 -2.22817 46.61535 1.97433 -4.85957 -10.54229 -5.47582 -0.46898 -25.46336 -13.93234 -1.31069 42.95838 91.04121 7.12883 0.71813 -31.86013 10.01388 5.54126 36.1307 -95.88403 14.16721 -0.27495 34.74766 -4.13497 -11.27465 -21.43453 -9.44269 -4.14104 -4.39766 36.9733 10.12948 10.68983 -27.28792 -8.74918 3.7991 4.19809
0.00616 0.0005 -0.00115 156.27062 -33.05656 -2.21035 46.55338 1.9169 -5.00698 -10.48562 -5.41448 -0.47118 -25.65426 -14.11022 -1.36252 42.81381 90.8223 7.05055 0.65803 -31.06572 10.15112 5.00132 36.3864 -95.68918 14.07457 -0.24708 34.73685 -4.22811 -11.73279 -21.44352 -9.41343 -4.12666 -4.38833 37.06586 10.21533 11.04029 -27.29899 -8.68634 3.7561 4.17466
0.00656 0.00055 -0.00019 156.54984 -33.10314 -2.20349 46.49618 1.84643 -5.24777 -10.39786 -5.23531 -0.47377 -25.89418 -14.64044 -0.70704 42.82255 89.50436 6.6138 0.19163 -30.07462 10.303 4.4475 36.74831 -95.4642 14.0222 -0.20567 34.77576 -4.30574 -12.04707 -21.44135 -9.4011 -4.11668 -4.38367 37.22314 10.1857 11.00248 -27.31939 -8.66249 3.74243 4.16667
0.00695 0.00061 0.00094 156.82056 -33.15495 -2.20247 46.43122 1.76965 -5.52711 -10.30227 -4.99881 -0.47814 -26.14536 -15.27284 0.14622 42.88376 87.93852 6.09138 -0.38248 -29.00806 10.46281 3.8883 37.15583 -95.22717 13.98146 -0.15965 34.82702 -4.37757 -12.3169 -21.43606 -9.3947 -4.10808 -4.38053 37.39562 10.11473 10.82019 -27.34266 -8.6527 3.7398 4.16449
0.00735 0.00066 0.00199 157.08892 -33.19817 -2.20107 46.36122 1.69423 -5.79088 -10.21451 -4.77316 -0.48373 -26.38474 -15.83114 0.85022 42.92087 86.58718 5.64393 -0.87421 -27.97824 10.61928 3.33772 37.54369 -94.99723 13.93397 -0.11642 34.86873 -4.44849 -12.59889 -21.43252 -9.38704 -4.09947 -4.37706 37.55372 10.0624 10.69565 -27.36445 -8.63708 3.73309 4.16016
0.00769 0.00073 0.00306 157.38761 -33.26538 -2.18967 46.3255 1.62507 -6.04798 -10.10798 -4.61212 -0.4809 -26.65469 -16.50238 1.79019 42.95929 84.86001 5.0579 -1.49534 -26.931 10.77484 2.75687 37.93015 -94.75824 13.8917 -0.06994 34.92215 -4.536 -12.92094 -21.42469 -9.37283 -4.088 -4.37195 37.74157 10.00981 10.60331 -27.38705 -8.61873 3.7223 4.15369
0.00818 0.00077 0.00412 157.61778 -33.28531 -2.20087 46.21752 1.54136 -6.3277 -10.03945 -4.30185 -0.49588 -26.86075 -16.96527 2.2964 43.00576 83.82939 4.73241 -1.87935 -25.90709 10.93498 2.23984 38.32965 -94.53652 13.84155 -0.02935 34.95817 -4.58714 -13.14899 -21.42835 -9.37355 -4.08275 -4.37055 37.87203 9.94926 10.41256 -27.40841 -8.6095 3.72258 4.15303
0.00902 0.0007 0.00519 157.68237 -33.1661 -2.2702 45.90862 1.41988 -6.65839 -10.07212 -3.60513 -0.56097 -26.91267 -16.81308 1.492 43.0818 84.86547 5.17889 -1.55334 -24.93977 11.09505 1.89573 38.74791 -94.36037 13.76877 -0.00503 34.91629 -4.53684 -13.09856 -21.43757 -9.41791 -4.09652 -4.38031 37.8365 9.86477 9.95437 -27.42813 -8.62273 3.75209 4.16765
0.01003 0.0006 0.00622 157.67376 -33.00067 -2.36252 45.52822 1.28391 -7.01067 -10.14447 -2.75865 -0.64365 -26.89555 -16.45048 0.25687 43.16092 86.58955 5.88319 -0.99151 -24.00491 11.26128 1.6179 39.17823 -94.20339 13.68753 0.01293 34.86177 -4.45015 -12.95877 -21.4636 -9.47651 -4.1162 -4.39355 37.7434 9.77594 9.40782 -27.44606 -8.64461 3.79216 4.18782
0.011 0.00052 0.00722 157.68453 -32.86148 -2.44637 45.18275 1.15398 -7.35414 -10.20228 -1.97258 -0.71744 -26.89318 -16.19463 -0.73666 43.22521 87.93718 6.44714 -0.55813 -23.07204 11.4316 1.31269 39.60666 -94.04098 13.60893 0.03307 34.83107 -4.38174 -12.87893 -21.49958 -9.52613 -4.13175 -4.40433 37.67964 9.69692 8.92164 -27.46322 -8.66209 3.82655 4.20503
0.01181 0.00041 0.00844 157.75458 -32.70055 -2.52256 44.82617 1.0259 -7.69469 -10.24474 -1.21469 -0.79522 -26.96004 -15.89662 -1.91424 43.34667 89.54425 7.10588 -0.0392 -22.06241 11.5732 0.99374 40.02206 -93.86354 13.53551 0.0565 34.72473 -4.30666 -12.7185 -21.46097 -9.58643 -4.15327 -4.41876 37.60384 9.5832 8.34452 -27.48718 -8.68192 3.86504 4.22425
0.013 0.00035 0.00918 157.68277 -32.57359 -2.61948 44.47652 0.89089 -8.04601 -10.32912 -0.36595 -0.86864 -26.86789 -15.63353 -2.8168 43.35081 90.77995 7.62986 0.35978 -21.22561 11.77591 0.72165 40.46624 -93.72302 13.44953 0.07133 34.77246 -4.23582 -12.70219 -21.582 -9.62792 -4.16397 -4.42652 37.53814 9.54147 7.93844 -27.49648 -8.69891 3.89736 4.24056
0.0152 0.00048 0.00868 157.24668 -32.55428 -2.773 44.15879 0.7379 -8.42091 -10.51617 0.7193 -0.92753 -26.33913 -15.53164 -2.82548 43.01484 90.79888 7.71513 0.36249 -20.82347 12.14564 0.54328 40.99159 -93.67226 13.32745 0.06539 35.25038 -4.19456 -13.13275 -22.1361 -9.61261 -4.14138 -4.41392 37.52422 9.69774 8.01821 -27.46613 -8.70476 3.90992 4.24739
0.01777 0.00066 0.00767 156.66877 -32.57042 -2.94557 43.85201 0.57899 -8.80589 -10.74477 1.88616 -0.98108 -25.65596 -15.46915 -2.54917 42.56311 90.42565 7.65686 0.23823 -20.60162 12.57615 0.4142 41.54413 -93.65947 13.19363 0.05071 35.88254 -4.15708 -13.70724 -22.84969 -9.57793 -4.10801 -4.39466 37.52066 9.92687 8.27353 -27.42104 -8.70783 3.91594 4.25113
0.02015 0.0008 0.00684 156.14935 -32.5684 -3.10615 43.54266 0.42429 -9.18662 -10.95655 3.00103 -1.03587 -25.05214 -15.37944 -2.42301 42.1745 90.24826 7.66712 0.17741 -20.31953 12.97959 0.27436 42.08129 -93.63427 13.06741 0.03906 36.44409 -4.11213 -14.19742 -23.49432 -9.55321 -4.08094 -4.37922 37.50575 10.12444 8.45684 -27.38242 -8.71263 3.92485 4.25625
0.02261 0.00099 0.00627 155.65185 -32.57268 -3.2818 43.21832 0.26234 -9.56668 -11.16079 4.18491 -1.09624 -24.40472 -15.32188 -2.22354 41.74253 90.02069 7.67274 0.10049 -19.94439 13.38304 0.08454 42.63274 -93.58922 12.93129 0.03119 37.01107 -4.09056 -14.76147 -24.12997 -9.5248 -4.04841 -4.36071 37.51648 10.31649 8.61179 -27.34459 -8.7149 3.93413 4.26146
